<svg xmlns="http://www.w3.org/2000/svg" xmlns:xlink="http://www.w3.org/1999/xlink" width="1280" height="751.3"><rect width="1280" height="751.3" rx="5" ry="5" class="a"/><svg y="0%" x="0%"><circle cx="20" cy="20" r="6" fill="#ff5f58"/><circle cx="40" cy="20" r="6" fill="#ffbd2e"/><circle cx="60" cy="20" r="6" fill="#18c132"/></svg><svg height="651.3" viewBox="0 0 120 65.13" width="1200" x="35" xmlns="http://www.w3.org/2000/svg" xmlns:xlink="http://www.w3.org/1999/xlink" y="70"><style>.a{fill:#282d35}.g{fill:#b9c0cb}.g,.h,.i,.l,.m{white-space:pre}.h{fill:#b9c0cb;font-weight:700}.i,.l,.m{fill:#71bef2}.l,.m{fill:gray}.m{fill:#a8cc8c}</style><g font-family="Monaco,Consolas,Menlo,'Bitstream Vera Sans Mono','Powerline Symbols',monospace" font-size="1.67"><defs><symbol id="a"><path fill="transparent" d="M0 0h120v30H0z"/></symbol></defs><path class="a" d="M0 0h120v65.13H0z"/><svg width="120"><svg><use xlink:href="#a"/><text y="1.67" class="g">g4f</text><text x="4.008" y="1.67" class="g">&gt;</text><text x="6.012" y="1.67" class="h">version</text><text y="3.841" class="i">INFO</text><text x="9.018" y="3.841" class="g">G4F_CLI</text><text x="17.034" y="3.841" class="g">v0.</text><text x="20.04" y="3.841" style="white-space:pre" fill="#66c2cd" font-weight="700">0.1</text><text y="6.012" class="i">INFO</text><text x="9.018" y="6.012" class="g">Author:</text><text x="17.034" y="6.012" class="g">thisDevSasha</text><text y="8.183" class="i">INFO</text><text x="9.018" y="8.183" class="g">Source</text><text x="16.032" y="8.183" class="g">code:</text><text x="22.044" y="8.183" style="white-space:pre" fill="#73bef3" text-decoration="underline">https://github.com/thisSasha/g4f_cli</text><text y="10.354" class="g">g4f</text><text x="4.008" y="10.354" class="g">&gt;</text><text x="7.014" y="10.354" class="g">use</text><text x="11.022" y="10.354" class="l">--model=gpt_4</text><text x="25.05" y="10.354" class="l">--provider=&quot;OpenAI&quot;</text><text x="45.09" y="10.354" class="g">&quot;Какая</text><text x="52.104" y="10.354" class="g">ты</text><text x="55.11" y="10.354" class="g">модель</text><text x="62.124" y="10.354" class="g">ИИ?&quot;</text><text y="12.525" class="g">Я</text><text x="2.004" y="12.525" class="g">—</text><text x="4.008" y="12.525" class="g">модель</text><text x="11.022" y="12.525" class="g">искусственного</text><text x="26.052" y="12.525" class="g">интеллекта,</text><text x="38.076" y="12.525" class="g">разработанная</text><text x="52.104" y="12.525" class="g">для</text><text x="56.112" y="12.525" class="g">помощи</text><text x="63.126" y="12.525" class="g">в</text><text x="65.13" y="12.525" class="g">ответах</text><text x="73.146" y="12.525" class="g">на</text><text x="76.152" y="12.525" class="g">вопросы,</text><text x="85.17" y="12.525" class="g">предоставлении</text><text x="100.2" y="12.525" class="g">информации</text><text x="111.222" y="12.525" class="g">и</text><text x="113.226" y="12.525" class="g">выполне</text><text y="14.696" class="g">нии</text><text x="4.008" y="14.696" class="g">различных</text><text x="14.028" y="14.696" class="g">задач.</text><text x="21.042" y="14.696" class="g">Моя</text><text x="25.05" y="14.696" class="g">основная</text><text x="34.068" y="14.696" class="g">цель</text><text x="39.078" y="14.696" class="g">—</text><text x="41.082" y="14.696" class="g">быть</text><text x="46.092" y="14.696" class="g">полезным</text><text x="55.11" y="14.696" class="g">и</text><text x="57.114" y="14.696" class="g">информативным</text><text x="71.142" y="14.696" class="g">помощником.</text><text x="83.166" y="14.696" class="g">Если</text><text x="88.176" y="14.696" class="g">у</text><text x="90.18" y="14.696" class="g">вас</text><text x="94.188" y="14.696" class="g">есть</text><text x="99.198" y="14.696" class="g">конкретные</text><text x="110.22" y="14.696" class="g">вопросы</text><text x="118.236" y="14.696" class="g">ил</text><text y="16.867" class="g">и</text><text x="2.004" y="16.867" class="g">задачи,</text><text x="10.02" y="16.867" class="g">не</text><text x="13.026" y="16.867" class="g">стесняйтесь</text><text x="25.05" y="16.867" class="g">спрашивать!</text><text y="19.038" class="g">g4f</text><text x="4.008" y="19.038" class="g">&gt;</text><text x="6.012" y="19.038" class="h">get</text><text x="10.02" y="19.038" class="l">--models</text><text x="19.038" y="19.038" class="g">OpenAI</text><text y="21.209" class="i">INFO</text><text x="9.018" y="21.209" class="g">Found</text><text x="15.03" y="21.209" class="g">models</text><text x="22.044" y="21.209" class="g">for</text><text x="26.052" y="21.209" class="g">OpenAI:</text><text y="23.38" class="g">[0]:</text><text x="5.01" y="23.38" class="g">gpt_4</text><text y="25.551" class="g">[1]:</text><text x="5.01" y="25.551" class="g">gpt_4o</text><text y="27.722" class="g">[2]:</text><text x="5.01" y="27.722" class="g">gpt_4o_mini</text><text y="29.893" class="g">[3]:</text><text x="5.01" y="29.893" class="g">gpt_4o_mini_audio</text><text y="32.064" class="g">[4]:</text><text x="5.01" y="32.064" class="g">gpt_4o_mini_tts</text><text y="34.235" class="g">[5]:</text><text x="5.01" y="34.235" class="g">o1</text><text y="36.406" class="g">[6]:</text><text x="5.01" y="36.406" class="g">o1_mini</text><text y="38.577" class="g">[7]:</text><text x="5.01" y="38.577" class="g">o3_mini</text><text y="40.748" class="g">[8]:</text><text x="5.01" y="40.748" class="g">o3_mini_high</text><text y="42.919" class="g">[9]:</text><text x="5.01" y="42.919" class="g">o4_mini</text><text y="45.09" class="g">[10]:</text><text x="6.012" y="45.09" class="g">o4_mini_high</text><text y="47.261" class="g">[11]:</text><text x="6.012" y="47.261" class="g">gpt_4_1</text><text y="49.432" class="g">[12]:</text><text x="6.012" y="49.432" class="g">gpt_4_1_mini</text><text y="51.603" class="g">[13]:</text><text x="6.012" y="51.603" class="g">gpt_4_1_nano</text><text y="53.774" class="g">[14]:</text><text x="6.012" y="53.774" class="g">gpt_4_5</text><text y="55.945" class="g">[15]:</text><text x="6.012" y="55.945" class="g">dall_e_3</text><text y="58.116" class="g">[16]:</text><text x="6.012" y="58.116" class="g">gpt_image</text><text y="60.287" class="i">INFO</text><text x="9.018" y="60.287" class="g">To</text><text x="12.024" y="60.287" class="g">copy</text><text x="17.034" y="60.287" class="g">some,</text><text x="23.046" y="60.287" class="g">type</text><text x="28.056" y="60.287" class="m">&quot;copy</text><text x="34.068" y="60.287" class="m">&lt;number&gt;&quot;</text><text y="62.458" class="g">g4f</text><text x="4.008" y="62.458" class="g">&gt;</text><text x="6.012" y="62.458" class="h">exit</text></svg></svg></g></svg></svg>